<svg width="20" height="20" viewBox="0 0 20 20" fill="none" xmlns="http://www.w3.org/2000/svg">
<path fill-rule="evenodd" clip-rule="evenodd" d="M10 20C15.5228 20 20 15.5228 20 10C20 4.47715 15.5228 0 10 0C4.47715 0 0 4.47715 0 10C0 15.5228 4.47715 20 10 20ZM9.98744 4.82001C11.4514 4.82001 12.6154 5.67201 12.6154 7.38801C12.6154 8.79037 11.6848 9.75237 10.8371 10.6286C10.3066 11.177 9.80854 11.6919 9.59144 12.26H12.6634V14H7.38344V13.16C7.38344 11.5882 8.43529 10.5061 9.3513 9.56363C10.0578 8.83679 10.6834 8.19308 10.6834 7.47201C10.6834 6.82401 10.4074 6.56001 10.0114 6.56001C9.57944 6.56001 9.31544 6.82401 9.31544 7.59201V8.19201H7.39544V7.54401C7.39544 5.74401 8.51144 4.82001 9.98744 4.82001Z" fill="black"/>
</svg>
