<svg width="14" height="20" viewBox="0 0 14 20" fill="none" xmlns="http://www.w3.org/2000/svg">
<path fill-rule="evenodd" clip-rule="evenodd" d="M9 2C7.34315 2 6 3.34315 6 5V13C6 13.5523 6.44772 14 7 14C7.55228 14 8 13.5523 8 13V6H10V13C10 14.6569 8.65685 16 7 16C5.34315 16 4 14.6569 4 13V5C4 2.23858 6.23858 0 9 0C11.7614 0 14 2.23858 14 5V13C14 16.866 10.866 20 7 20C3.13401 20 0 16.866 0 13V6H2V13C2 15.7614 4.23858 18 7 18C9.76142 18 12 15.7614 12 13V5C12 3.34315 10.6569 2 9 2Z" fill="black" fill-opacity="0.24"/>
</svg>
