<svg width="37" height="26" viewBox="0 0 37 26" fill="none" xmlns="http://www.w3.org/2000/svg">
<path d="M4.7217 24.9081C1.97391 26.4953 0 25.1726 0 22.82C0 20.3155 0 12.8008 0 12.8008C0 12.8008 0 5.28618 0 2.78169C0 0.429074 1.97268 -0.893588 4.7217 0.693605C9.00135 3.16502 21.8391 10.5817 21.8391 10.5817C23.5461 11.5676 23.5461 14.0329 21.8391 15.0188C21.8391 15.02 9.00135 22.4367 4.7217 24.9081Z" fill="#00C1FF"/>
<path d="M18.8526 24.9081C16.1048 26.4953 14.1309 25.1726 14.1309 22.82C14.1309 20.3155 14.1309 12.8008 14.1309 12.8008C14.1309 12.8008 14.1309 5.28618 14.1309 2.78169C14.1309 0.429074 16.1035 -0.893588 18.8526 0.693605C23.0379 3.11113 35.594 10.3649 35.594 10.3649C37.4687 11.4476 37.4687 14.1541 35.594 15.2367C35.5928 15.2367 23.0379 22.4906 18.8526 24.9081Z" fill="#FCDE00"/>
</svg>
