<svg width="184" height="22" viewBox="0 0 184 22" fill="none" xmlns="http://www.w3.org/2000/svg">
<path d="M3.85601 21.0011C1.61201 22.2973 0 21.2171 0 19.2958C0 17.2505 0 11.1136 0 11.1136C0 11.1136 0 4.97667 0 2.93136C0 1.01007 1.61101 -0.0700874 3.85601 1.22611C7.35103 3.24441 17.8351 9.30131 17.8351 9.30131C19.2291 10.1064 19.2291 12.1197 17.8351 12.9249C17.8351 12.9259 7.35103 18.9828 3.85601 21.0011Z" fill="#00C1FF"/>
<path d="M15.3973 21.0006C13.1533 22.2968 11.5413 21.2166 11.5413 19.2953C11.5413 17.25 11.5413 11.1131 11.5413 11.1131C11.5413 11.1131 11.5413 4.97618 11.5413 2.93087C11.5413 1.00959 13.1523 -0.0705757 15.3973 1.22562C18.8153 3.19991 29.0693 9.1238 29.0693 9.1238C30.6003 10.0079 30.6003 12.2183 29.0693 13.1024C29.0683 13.1024 18.8153 19.0263 15.3973 21.0006Z" fill="#FCDE00"/>
<mask id="mask0" mask-type="alpha" maskUnits="userSpaceOnUse" x="11" y="0" width="20" height="22">
<path d="M15.3973 21.0006C13.1533 22.2968 11.5413 21.2166 11.5413 19.2953C11.5413 17.25 11.5413 11.1131 11.5413 11.1131C11.5413 11.1131 11.5413 4.97618 11.5413 2.93087C11.5413 1.00959 13.1523 -0.0705757 15.3973 1.22562C18.8153 3.19991 29.0693 9.1238 29.0693 9.1238C30.6003 10.0079 30.6003 12.2183 29.0693 13.1024C29.0683 13.1024 18.8153 19.0263 15.3973 21.0006Z" fill="#FCDE00"/>
</mask>
<g mask="url(#mask0)">
<g filter="url(#filter0_f)">
<path d="M3.85601 21.0011C1.61201 22.2973 0 21.2171 0 19.2958C0 17.2505 0 11.1136 0 11.1136C0 11.1136 0 4.97667 0 2.93136C0 1.01007 1.61101 -0.0700874 3.85601 1.22611C7.35103 3.24441 17.8351 9.30131 17.8351 9.30131C19.2291 10.1064 19.2291 12.1197 17.8351 12.9249C17.8351 12.9259 7.35103 18.9828 3.85601 21.0011Z" fill="#FF8A00"/>
</g>
</g>
<path d="M38.1231 14.7614L38.5211 13.8605C38.7861 13.2505 39.263 13.0915 39.873 13.5425C41.039 14.3905 42.9469 15.0264 45.4918 15.0264C47.6647 15.0264 48.5927 14.4695 48.5927 13.8075C48.5927 13.0655 47.8237 12.8535 46.5518 12.6945L43.6629 12.3235C40.191 11.8726 38.4411 10.6276 38.4411 8.45368C38.4411 6.12177 40.349 4.26584 44.7758 4.26584C47.2407 4.26584 48.8307 4.63683 49.8647 5.03481C51.0036 5.48579 51.1636 5.85678 51.1636 6.78374V7.9767C51.1636 8.71867 50.8986 8.98366 50.1566 8.98366H49.3347C48.5927 8.98366 48.3277 8.71867 48.3277 7.9767V7.57871C47.8507 7.41972 46.6578 7.18073 45.2538 7.18073C42.8149 7.18073 41.623 7.63171 41.623 8.37368C41.623 8.92966 42.3389 9.24865 43.6369 9.43365L46.4728 9.80463C49.9447 10.2556 51.7736 11.2886 51.7736 13.7805C51.7736 16.3244 49.3617 17.9413 45.0678 17.9413C41.914 17.9413 39.369 16.9344 38.3621 16.0064C37.9911 15.6624 37.9381 15.2124 38.1231 14.7614Z" fill="white"/>
<path d="M69.3979 17.7303H67.94C67.224 17.7303 66.986 17.6243 66.641 17.0944L63.8841 13.0395C63.4861 12.4825 63.1952 12.3505 62.3742 12.3505H59.6173V16.7234C59.6173 17.4653 59.3523 17.7303 58.6103 17.7303H57.5504C56.8084 17.7303 56.5434 17.4653 56.5434 16.7234V3.55087L55.5624 3.55087C54.8205 3.55087 54.5555 3.28588 54.5555 2.5439V1.66894C54.5555 0.926964 54.8205 0.661975 55.5624 0.661975L58.6103 0.661975C59.3523 0.661975 59.6173 0.926964 59.6173 1.66894V9.38165H62.0822C62.9032 9.38165 63.1952 9.24965 63.5921 8.69267L65.8981 5.14081C66.269 4.58483 66.508 4.47883 67.223 4.47883L68.6809 4.47883C69.4759 4.47883 69.6349 5.11481 69.1849 5.77778L66.614 9.67364C66.349 10.0446 66.031 10.4426 65.7131 10.7606C66.031 11.0256 66.482 11.4766 66.667 11.7416L69.8999 16.4594C70.3519 17.0944 70.1929 17.7303 69.3979 17.7303Z" fill="white"/>
<path d="M74.4067 20.1682V19.2933C74.4067 18.5513 74.6717 18.2863 75.4137 18.2863H76.6856C77.4546 18.2863 77.8256 18.1273 78.1166 17.5173L78.2756 17.1724L72.2058 5.69579C71.8348 5.00681 72.1268 4.47683 72.9218 4.47683L74.2997 4.47683C75.0157 4.47683 75.3337 4.60883 75.5987 5.11281L78.1426 10.3336C78.7256 11.5266 79.3885 12.9045 79.9185 14.0975C80.4485 12.9315 81.0575 11.6066 81.6415 10.4396L84.2394 5.11481C84.4784 4.61083 84.8223 4.47883 85.5383 4.47883H86.9163C87.7112 4.47883 88.0032 5.00881 87.6322 5.69779L80.7155 18.8173C79.9205 20.3282 78.9926 21.1762 76.9256 21.1762H75.4137C74.6717 21.1752 74.4067 20.9102 74.4067 20.1682Z" fill="white"/>
<path d="M89.9242 14.7614L90.3221 13.8605C90.5871 13.2505 91.0641 13.0915 91.6741 13.5425C92.84 14.3905 94.748 15.0264 97.2929 15.0264C99.4658 15.0264 100.394 14.4695 100.394 13.8075C100.394 13.0655 99.6248 12.8535 98.3528 12.6945L95.464 12.3235C91.9921 11.8726 90.2421 10.6276 90.2421 8.45368C90.2421 6.12177 92.1501 4.26584 96.5769 4.26584C99.0418 4.26584 100.632 4.63683 101.666 5.03481C102.805 5.48579 102.965 5.85678 102.965 6.78374V7.9767C102.965 8.71867 102.7 8.98366 101.958 8.98366H101.136C100.394 8.98366 100.129 8.71867 100.129 7.9767V7.57871C99.6518 7.41972 98.4588 7.18073 97.0549 7.18073C94.616 7.18073 93.424 7.63171 93.424 8.37368C93.424 8.92966 94.14 9.24865 95.438 9.43365L98.2738 9.80463C101.746 10.2556 103.575 11.2886 103.575 13.7805C103.575 16.3244 101.163 17.9413 96.8689 17.9413C93.715 17.9413 91.1701 16.9344 90.1631 16.0064C89.7922 15.6624 89.7392 15.2124 89.9242 14.7614Z" fill="white"/>
<path d="M132.19 10.3626V16.7234C132.19 17.4653 131.925 17.7303 131.183 17.7303H130.123C129.381 17.7303 129.116 17.4653 129.116 16.7234V10.6276C129.116 8.56068 128.109 7.31472 126.041 7.31472C124.371 7.31472 123.046 8.34869 122.065 9.43464V16.7234C122.065 17.4653 121.8 17.7303 121.058 17.7303H119.998C119.256 17.7303 118.991 17.4653 118.991 16.7234V10.6276C118.991 8.56068 118.01 7.31472 115.943 7.31472C114.326 7.28773 112.921 8.26869 111.941 9.32865V16.7234C111.941 17.4653 111.676 17.7303 110.934 17.7303H109.874C109.132 17.7303 108.867 17.4653 108.867 16.7234V7.36772H107.886C107.145 7.36772 106.88 7.10273 106.88 6.36076V5.48579C106.88 4.74382 107.145 4.47883 107.886 4.47883H110.457C111.199 4.47883 111.464 4.74382 111.464 5.48579V6.20177C112.365 5.2738 113.823 4.26684 116.023 4.26684C118.461 4.26684 120.051 5.06181 121.006 6.54575C122.172 5.3528 123.762 4.26684 126.095 4.26684C129.857 4.26584 132.19 6.33376 132.19 10.3626Z" fill="white"/>
<path d="M143.586 9.43464H146.714V8.98366C146.714 7.81771 145.309 7.12873 143.083 7.12873C141.069 7.12873 139.452 7.8707 138.498 8.58668C137.888 9.03766 137.411 8.90466 137.146 8.26869L136.748 7.36772C136.563 6.91674 136.615 6.46676 136.987 6.12177C137.756 5.4058 140.008 4.26684 143.242 4.26684C146.9 4.26684 149.682 5.80378 149.682 8.56068V16.7234C149.682 17.4653 149.417 17.7303 148.675 17.7303H147.827C147.085 17.7303 146.82 17.4653 146.82 16.7234V15.9814C145.945 17.0154 144.143 17.9423 141.625 17.9423C138.683 17.9423 136.139 16.5644 136.139 13.8605C136.138 10.9456 138.815 9.43464 143.586 9.43464ZM141.943 15.1594C143.613 15.1594 146.82 14.2585 146.82 11.8726H143.931C140.644 11.8726 139.293 12.5615 139.293 13.7015C139.292 14.6294 140.167 15.1594 141.943 15.1594Z" fill="white"/>
<path d="M168.021 10.0706C168.021 10.8126 167.756 11.0776 167.014 11.0776H165.954C165.212 11.0776 164.947 10.8656 164.947 10.0706C164.947 8.10969 164.205 7.23473 162.403 7.23473C160.708 7.23473 159.303 8.29469 158.508 9.56764V16.7234C158.508 17.4653 158.243 17.7303 157.501 17.7303H156.441C155.699 17.7303 155.434 17.4653 155.434 16.7234V7.36772H154.453C153.711 7.36772 153.446 7.10273 153.446 6.36076V5.48579C153.446 4.74382 153.711 4.47883 154.453 4.47883L157.024 4.47883C157.766 4.47883 158.031 4.74382 158.031 5.48579V6.33376C158.985 5.2738 160.417 4.26684 162.881 4.26684C166.536 4.26584 168.021 6.41276 168.021 10.0706Z" fill="white"/>
<path d="M171.038 4.47883H172.814V1.00696C172.814 0.264989 173.079 0 173.821 0L174.881 0C175.623 0 175.888 0.264989 175.888 1.00696V4.47883L182.488 4.47883C183.23 4.47883 183.495 4.74382 183.495 5.48579V6.36076C183.495 7.10273 183.23 7.36772 182.488 7.36772L175.888 7.36772V13.1985C175.888 14.3385 176.657 14.9474 178.485 14.9474C179.97 14.9474 180.871 14.4435 181.401 14.0465C182.011 13.5955 182.435 13.7545 182.753 14.3645L183.257 15.3714C183.469 15.8224 183.363 16.1664 182.965 16.5114C182.488 16.9354 180.951 17.9423 178.141 17.9423C175.093 17.9423 172.813 16.6434 172.813 13.5955V7.36672H171.037C170.295 7.36672 170.03 7.10173 170.03 6.35976V5.48479C170.031 4.74282 170.296 4.47883 171.038 4.47883Z" fill="white"/>
<defs>
<filter id="filter0_f" x="-1.60018" y="-0.940512" width="22.0809" height="24.1082" filterUnits="userSpaceOnUse" color-interpolation-filters="sRGB">
<feFlood flood-opacity="0" result="BackgroundImageFix"/>
<feBlend mode="normal" in="SourceGraphic" in2="BackgroundImageFix" result="shape"/>
<feGaussianBlur stdDeviation="0.80009" result="effect1_foregroundBlur"/>
</filter>
</defs>
</svg>
