<svg width="24" height="24" viewBox="0 0 24 24" fill="none" xmlns="http://www.w3.org/2000/svg">
<path fill-rule="evenodd" clip-rule="evenodd" d="M11.2929 2.79289C11.6834 2.40237 12.3166 2.40237 12.7071 2.79289L17.2071 7.29289L15.7929 8.70711L13 5.91421V15H11V5.91421L8.20709 8.70711L6.79288 7.29289L11.2929 2.79289Z" fill="#FF6D00"/>
<path fill-rule="evenodd" clip-rule="evenodd" d="M3.70958 17.4417L3.0061 11.1104L4.99387 10.8896L5.69735 17.2209C5.80989 18.2337 6.66602 19 7.68512 19H16.3149C17.334 19 18.1901 18.2337 18.3026 17.2209L19.0061 10.8896L20.9939 11.1104L20.2904 17.4417C20.0653 19.4675 18.3531 21 16.3149 21H7.68512C5.64692 21 3.93466 19.4675 3.70958 17.4417Z" fill="#FF6D00"/>
</svg>
