<svg width="24" height="24" viewBox="0 0 24 24" fill="none" xmlns="http://www.w3.org/2000/svg">
<path d="M21 6H3V8H21V6Z" fill="white"/>
<path d="M3 11H21V13H3V11Z" fill="white"/>
<path d="M3 16H21V18H3V16Z" fill="white"/>
<path d="M10 7C10 8.24264 8.99264 9.25 7.75 9.25C6.50736 9.25 5.5 8.24264 5.5 7C5.5 5.75736 6.50736 4.75 7.75 4.75C8.99264 4.75 10 5.75736 10 7Z" fill="white"/>
<path d="M19 12C19 13.2426 17.9926 14.25 16.75 14.25C15.5074 14.25 14.5 13.2426 14.5 12C14.5 10.7574 15.5074 9.75 16.75 9.75C17.9926 9.75 19 10.7574 19 12Z" fill="white"/>
<path d="M12 17C12 18.2426 10.9926 19.25 9.75 19.25C8.50736 19.25 7.5 18.2426 7.5 17C7.5 15.7574 8.50736 14.75 9.75 14.75C10.9926 14.75 12 15.7574 12 17Z" fill="white"/>
</svg>
