<svg width="15" height="15" viewBox="0 0 15 15" fill="none" xmlns="http://www.w3.org/2000/svg">
<path fill-rule="evenodd" clip-rule="evenodd" d="M0.707107 13.4346C0.316583 13.0441 0.316583 12.411 0.707107 12.0204L12.0208 0.706724C12.4113 0.3162 13.0445 0.3162 13.435 0.706724C13.8256 1.09725 13.8256 1.73041 13.435 2.12094L2.12132 13.4346C1.7308 13.8252 1.09763 13.8252 0.707107 13.4346Z" fill="black"/>
<path fill-rule="evenodd" clip-rule="evenodd" d="M0.706956 0.707107C1.09748 0.316583 1.73065 0.316583 2.12117 0.707107L13.4349 12.0208C13.8254 12.4113 13.8254 13.0445 13.4349 13.435C13.0444 13.8256 12.4112 13.8256 12.0207 13.435L0.706956 2.12132C0.316431 1.7308 0.316431 1.09763 0.706956 0.707107Z" fill="black"/>
</svg>
