<svg width="20" height="20" viewBox="0 0 20 20" fill="none" xmlns="http://www.w3.org/2000/svg">
<path fill-rule="evenodd" clip-rule="evenodd" d="M10 20C15.5228 20 20 15.5228 20 10C20 4.47715 15.5228 0 10 0C4.47715 0 0 4.47715 0 10C0 15.5228 4.47715 20 10 20ZM10.8028 11.18C10.8028 10.496 10.4308 10.232 9.84281 10.232H9.24281V8.58801H9.84281C10.3348 8.58801 10.6468 8.33601 10.6468 7.66401V7.34001C10.6468 6.77601 10.3828 6.56001 9.96281 6.56001C9.55481 6.56001 9.27881 6.77601 9.27881 7.30401V7.73601H7.35881V7.23201C7.35881 5.60001 8.52281 4.82001 9.96281 4.82001C11.4028 4.82001 12.5668 5.61201 12.5668 7.10001V7.52001C12.5668 8.30001 12.2068 8.87601 11.6428 9.23601C12.3028 9.62001 12.7228 10.244 12.7228 11.12V11.72C12.7228 13.316 11.4868 14.18 9.96281 14.18C8.43881 14.18 7.20281 13.316 7.20281 11.72V11H9.12281V11.48C9.12281 12.176 9.45881 12.44 9.96281 12.44C10.4788 12.44 10.8028 12.164 10.8028 11.456V11.18Z" fill="black"/>
</svg>
