<svg width="191" height="23" viewBox="0 0 191 23" fill="none" xmlns="http://www.w3.org/2000/svg">
<path d="M4.25602 22.2556C1.92813 23.6003 0.255859 22.4797 0.255859 20.4866C0.255859 18.3649 0.255859 11.9985 0.255859 11.9985C0.255859 11.9985 0.255859 5.63219 0.255859 3.51042C0.255859 1.51731 1.92709 0.396773 4.25602 1.74142C7.88169 3.83517 18.7577 10.1185 18.7577 10.1185C20.2038 10.9537 20.2038 13.0423 18.7577 13.8775C18.7577 13.8785 7.88169 20.1619 4.25602 22.2556Z" fill="#00C1FF"/>
<path d="M16.2267 22.2556C13.8988 23.6003 12.2266 22.4797 12.2266 20.4866C12.2266 18.3649 12.2266 11.9985 12.2266 11.9985C12.2266 11.9985 12.2266 5.63219 12.2266 3.51042C12.2266 1.51731 13.8978 0.396773 16.2267 1.74142C19.7725 3.78952 30.4099 9.93486 30.4099 9.93486C31.9981 10.852 31.9981 13.145 30.4099 14.0622C30.4088 14.0622 19.7725 20.2075 16.2267 22.2556Z" fill="#FCDE00"/>
<mask id="mask0" mask-type="alpha" maskUnits="userSpaceOnUse" x="12" y="1" width="20" height="22">
<path d="M16.2267 22.2556C13.8988 23.6003 12.2266 22.4797 12.2266 20.4866C12.2266 18.3649 12.2266 11.9985 12.2266 11.9985C12.2266 11.9985 12.2266 5.63219 12.2266 3.51042C12.2266 1.51731 13.8978 0.396773 16.2267 1.74142C19.7725 3.78952 30.4099 9.93486 30.4099 9.93486C31.9981 10.852 31.9981 13.145 30.4099 14.0622C30.4088 14.0622 19.7725 20.2075 16.2267 22.2556Z" fill="#FCDE00"/>
</mask>
<g mask="url(#mask0)">
<g filter="url(#filter0_f)">
<path d="M4.25602 22.2556C1.92813 23.6003 0.255859 22.4797 0.255859 20.4866C0.255859 18.3649 0.255859 11.9985 0.255859 11.9985C0.255859 11.9985 0.255859 5.63219 0.255859 3.51042C0.255859 1.51731 1.92709 0.396773 4.25602 1.74142C7.88169 3.83517 18.7577 10.1185 18.7577 10.1185C20.2038 10.9537 20.2038 13.0423 18.7577 13.8775C18.7577 13.8785 7.88169 20.1619 4.25602 22.2556Z" fill="#FF8A00"/>
</g>
</g>
<path d="M39.3281 15.783L39.741 14.8484C40.0159 14.2156 40.5107 14.0506 41.1435 14.5185C42.353 15.3981 44.3323 16.0579 46.9723 16.0579C49.2265 16.0579 50.1891 15.4801 50.1891 14.7934C50.1891 14.0237 49.3914 13.8037 48.0719 13.6388L45.075 13.254C41.4734 12.7861 39.658 11.4946 39.658 9.23944C39.658 6.82035 41.6373 4.89504 46.2296 4.89504C48.7866 4.89504 50.436 5.27989 51.5086 5.69275C52.6902 6.1606 52.8561 6.54545 52.8561 7.50707V8.74462C52.8561 9.51433 52.5812 9.78923 51.8115 9.78923H50.9588C50.1891 9.78923 49.9142 9.51433 49.9142 8.74462V8.33176C49.4194 8.16682 48.1819 7.9189 46.7254 7.9189C44.1954 7.9189 42.9588 8.38674 42.9588 9.15645C42.9588 9.73321 43.7016 10.0641 45.048 10.256L47.99 10.6409C51.5916 11.1087 53.4889 12.1803 53.4889 14.7654C53.4889 17.4044 50.9869 19.0818 46.5325 19.0818C43.2607 19.0818 40.6207 18.0372 39.5761 17.0745C39.1912 16.7177 39.1362 16.2508 39.3281 15.783Z" fill="black"/>
<path d="M71.7721 18.8629H70.2597C69.5169 18.8629 69.27 18.7529 68.9122 18.2031L66.0522 13.9967C65.6393 13.4189 65.3375 13.282 64.4858 13.282H61.6259V17.8183C61.6259 18.588 61.351 18.8629 60.5812 18.8629H59.4817C58.712 18.8629 58.4371 18.588 58.4371 17.8183V4.15334H57.4194C56.6497 4.15334 56.3748 3.87844 56.3748 3.10873V2.20105C56.3748 1.43134 56.6497 1.15645 57.4194 1.15645H60.5812C61.351 1.15645 61.6259 1.43134 61.6259 2.20105V10.2021H64.1829C65.0346 10.2021 65.3375 10.0652 65.7493 9.48736L68.1414 5.80271C68.5263 5.22595 68.7742 5.11599 69.5159 5.11599H71.0283C71.853 5.11599 72.018 5.77574 71.5512 6.4635L68.8842 10.505C68.6093 10.8898 68.2794 11.3027 67.9495 11.6326C68.2794 11.9075 68.7472 12.3753 68.9391 12.6502L72.2929 17.5444C72.7617 18.2031 72.5968 18.8629 71.7721 18.8629Z" fill="black"/>
<path d="M76.9682 21.3919V20.4842C76.9682 19.7145 77.2431 19.4396 78.0128 19.4396H79.3323C80.13 19.4396 80.5149 19.2747 80.8167 18.6419L80.9817 18.284L74.685 6.37844C74.3001 5.66371 74.603 5.11392 75.4277 5.11392H76.8572C77.5999 5.11392 77.9298 5.25085 78.2047 5.77367L80.8437 11.1896C81.4485 12.4272 82.1362 13.8567 82.686 15.0942C83.2358 13.8847 83.8676 12.5102 84.4734 11.2996L87.1684 5.77574C87.4163 5.25292 87.7732 5.11599 88.5159 5.11599H89.9454C90.77 5.11599 91.0729 5.66578 90.6881 6.38051L83.5128 19.9905C82.6881 21.5579 81.7254 22.4376 79.5812 22.4376H78.0128C77.2431 22.4365 76.9682 22.1616 76.9682 21.3919Z" fill="black"/>
<path d="M93.0657 15.783L93.4785 14.8484C93.7534 14.2156 94.2483 14.0506 94.881 14.5185C96.0906 15.3981 98.0698 16.0579 100.71 16.0579C102.964 16.0579 103.927 15.4801 103.927 14.7934C103.927 14.0237 103.129 13.8037 101.809 13.6388L98.8126 13.254C95.2109 12.7861 93.3956 11.4946 93.3956 9.23944C93.3956 6.82035 95.3748 4.89504 99.9671 4.89504C102.524 4.89504 104.174 5.27989 105.246 5.69275C106.428 6.1606 106.594 6.54545 106.594 7.50707V8.74462C106.594 9.51433 106.319 9.78923 105.549 9.78923H104.696C103.927 9.78923 103.652 9.51433 103.652 8.74462V8.33176C103.157 8.16682 101.919 7.9189 100.463 7.9189C97.9329 7.9189 96.6964 8.38674 96.6964 9.15645C96.6964 9.73321 97.4391 10.0641 98.7856 10.256L101.728 10.6409C105.329 11.1087 107.226 12.1803 107.226 14.7654C107.226 17.4044 104.724 19.0818 100.27 19.0818C96.9983 19.0818 94.3582 18.0372 93.3136 17.0745C92.9288 16.7177 92.8738 16.2508 93.0657 15.783Z" fill="black"/>
<path d="M136.911 11.2197V17.8183C136.911 18.588 136.636 18.8629 135.867 18.8629H134.767C133.997 18.8629 133.722 18.588 133.722 17.8183V11.4946C133.722 9.35043 132.678 8.0579 130.533 8.0579C128.8 8.0579 127.426 9.13051 126.408 10.2571V17.8183C126.408 18.588 126.133 18.8629 125.363 18.8629H124.264C123.494 18.8629 123.219 18.588 123.219 17.8183V11.4946C123.219 9.35043 122.202 8.0579 120.057 8.0579C118.38 8.02989 116.923 9.04753 115.906 10.1471V17.8183C115.906 18.588 115.631 18.8629 114.861 18.8629H113.762C112.992 18.8629 112.717 18.588 112.717 17.8183V8.11288H111.7C110.93 8.11288 110.655 7.83798 110.655 7.06827V6.1606C110.655 5.39089 110.93 5.11599 111.7 5.11599H114.367C115.136 5.11599 115.411 5.39089 115.411 6.1606V6.90334C116.346 5.94068 117.858 4.89608 120.14 4.89608C122.669 4.89608 124.319 5.72076 125.309 7.26018C126.519 6.02263 128.168 4.89608 130.589 4.89608C134.491 4.89504 136.911 7.04026 136.911 11.2197Z" fill="black"/>
<path d="M148.734 10.2571H151.979V9.78923C151.979 8.57968 150.521 7.86495 148.212 7.86495C146.123 7.86495 144.445 8.63466 143.456 9.3774C142.823 9.84524 142.328 9.70728 142.053 9.04753L141.64 8.11288C141.448 7.64504 141.502 7.17823 141.888 6.82035C142.686 6.07761 145.022 4.89607 148.377 4.89607C152.172 4.89607 155.057 6.49047 155.057 9.35043V17.8183C155.057 18.588 154.782 18.8629 154.013 18.8629H153.133C152.363 18.8629 152.089 18.588 152.089 17.8183V17.0486C151.181 18.1212 149.312 19.0828 146.7 19.0828C143.648 19.0828 141.009 17.6533 141.009 14.8484C141.008 11.8245 143.785 10.2571 148.734 10.2571ZM147.029 16.1959C148.762 16.1959 152.089 15.2612 152.089 12.7861H149.092C145.682 12.7861 144.28 13.5008 144.28 14.6834C144.279 15.6461 145.187 16.1959 147.029 16.1959Z" fill="black"/>
<path d="M174.082 10.9168C174.082 11.6865 173.807 11.9614 173.038 11.9614H171.938C171.168 11.9614 170.894 11.7415 170.894 10.9168C170.894 8.88259 170.124 7.97491 168.255 7.97491C166.495 7.97491 165.038 9.0745 164.213 10.395V17.8183C164.213 18.588 163.938 18.8629 163.168 18.8629H162.069C161.299 18.8629 161.024 18.588 161.024 17.8183V8.11288H160.007C159.237 8.11288 158.962 7.83798 158.962 7.06827V6.1606C158.962 5.39089 159.237 5.11599 160.007 5.11599H162.674C163.443 5.11599 163.718 5.39089 163.718 6.1606V7.04027C164.708 5.94068 166.193 4.89608 168.75 4.89608C172.542 4.89504 174.082 7.12221 174.082 10.9168Z" fill="black"/>
<path d="M177.212 5.11599H179.054V1.51433C179.054 0.744622 179.329 0.469727 180.099 0.469727H181.198C181.968 0.469727 182.243 0.744622 182.243 1.51433V5.11599H189.09C189.859 5.11599 190.134 5.39089 190.134 6.1606V7.06827C190.134 7.83798 189.859 8.11288 189.09 8.11288H182.243V14.1616C182.243 15.3442 183.041 15.9759 184.937 15.9759C186.478 15.9759 187.412 15.4531 187.962 15.0413C188.595 14.5735 189.035 14.7384 189.364 15.3712L189.887 16.4158C190.107 16.8836 189.997 17.2405 189.584 17.5984C189.09 18.0382 187.495 19.0828 184.58 19.0828C181.418 19.0828 179.053 17.7353 179.053 14.5735V8.11184H177.211C176.441 8.11184 176.166 7.83695 176.166 7.06724V6.15956C176.167 5.38985 176.442 5.11599 177.212 5.11599Z" fill="black"/>
<defs>
<filter id="filter0_f" x="-1.40414" y="-0.506191" width="22.9064" height="25.0094" filterUnits="userSpaceOnUse" color-interpolation-filters="sRGB">
<feFlood flood-opacity="0" result="BackgroundImageFix"/>
<feBlend mode="normal" in="SourceGraphic" in2="BackgroundImageFix" result="shape"/>
<feGaussianBlur stdDeviation="0.83" result="effect1_foregroundBlur"/>
</filter>
</defs>
</svg>
