<svg width="160" height="21" viewBox="0 0 160 21" fill="none" xmlns="http://www.w3.org/2000/svg">
<g clip-path="url(#clip0)">
<path d="M3.35306 19.6301C1.40174 20.7572 0 19.8179 0 18.1472C0 16.3687 0 11.0323 0 11.0323C0 11.0323 0 5.69581 0 3.91728C0 2.2466 1.40087 1.30732 3.35306 2.43445C6.3922 4.18949 15.5088 9.45637 15.5088 9.45637C16.7209 10.1565 16.7209 11.9072 15.5088 12.6073C15.5088 12.6081 6.3922 17.875 3.35306 19.6301Z" fill="#00C1FF"/>
<path d="M13.3882 19.6301C11.4369 20.7572 10.0352 19.8179 10.0352 18.1472C10.0352 16.3687 10.0352 11.0323 10.0352 11.0323C10.0352 11.0323 10.0352 5.69581 10.0352 3.91728C10.0352 2.2466 11.436 1.30732 13.3882 2.43445C16.3604 4.15123 25.277 9.30243 25.277 9.30243C26.6083 10.0712 26.6083 11.9933 25.277 12.7621C25.2761 12.7621 16.3604 17.9133 13.3882 19.6301Z" fill="#FCDE00"/>
<mask id="mask0" mask-type="alpha" maskUnits="userSpaceOnUse" x="10" y="1" width="17" height="20">
<path d="M13.3882 19.6301C11.4369 20.7572 10.0352 19.8179 10.0352 18.1472C10.0352 16.3687 10.0352 11.0323 10.0352 11.0323C10.0352 11.0323 10.0352 5.69581 10.0352 3.91728C10.0352 2.2466 11.436 1.30732 13.3882 2.43445C16.3604 4.15123 25.277 9.30243 25.277 9.30243C26.6083 10.0712 26.6083 11.9933 25.277 12.7621C25.2761 12.7621 16.3604 17.9133 13.3882 19.6301Z" fill="#FCDE00"/>
</mask>
<g mask="url(#mask0)">
<g filter="url(#filter0_f)">
<path d="M3.35306 19.6301C1.40174 20.7572 0 19.8179 0 18.1472C0 16.3687 0 11.0323 0 11.0323C0 11.0323 0 5.69581 0 3.91728C0 2.2466 1.40087 1.30732 3.35306 2.43445C6.3922 4.18949 15.5088 9.45637 15.5088 9.45637C16.7209 10.1565 16.7209 11.9072 15.5088 12.6073C15.5088 12.6081 6.3922 17.875 3.35306 19.6301Z" fill="#FF8A00"/>
</g>
</g>
<path d="M33.1516 14.2052L33.4976 13.4217C33.7281 12.8913 34.1428 12.7531 34.6733 13.1452C35.6871 13.8826 37.3462 14.4356 39.5592 14.4356C41.4487 14.4356 42.2556 13.9513 42.2556 13.3756C42.2556 12.7305 41.5869 12.5461 40.4809 12.4079L37.9688 12.0853C34.9498 11.6931 33.4281 10.6105 33.4281 8.72017C33.4281 6.69242 35.0872 5.07857 38.9366 5.07857C41.08 5.07857 42.4625 5.40116 43.3616 5.74724C44.352 6.1394 44.4912 6.46199 44.4912 7.26805V8.3054C44.4912 8.95059 44.2607 9.18102 43.6155 9.18102H42.9008C42.2556 9.18102 42.0252 8.95059 42.0252 8.3054V7.95933C41.6104 7.82107 40.573 7.61325 39.3522 7.61325C37.2314 7.61325 36.1949 8.00541 36.1949 8.65061C36.1949 9.13407 36.8175 9.41145 37.9462 9.57231L40.4122 9.89491C43.4312 10.2871 45.0216 11.1853 45.0216 13.3522C45.0216 15.5643 42.9243 16.9703 39.1905 16.9703C36.448 16.9703 34.235 16.0947 33.3594 15.2877C33.0368 14.9886 32.9907 14.5973 33.1516 14.2052Z" fill="black"/>
<path d="M60.3471 16.7868H59.0793C58.4567 16.7868 58.2498 16.6946 57.9498 16.2338L55.5525 12.7078C55.2064 12.2235 54.9534 12.1087 54.2395 12.1087H51.8422V15.9112C51.8422 16.5564 51.6118 16.7868 50.9666 16.7868H50.0449C49.3997 16.7868 49.1692 16.5564 49.1692 15.9112V4.45685H48.3162C47.671 4.45685 47.4406 4.22642 47.4406 3.58123V2.82039C47.4406 2.1752 47.671 1.94477 48.3162 1.94477H50.9666C51.6118 1.94477 51.8422 2.1752 51.8422 2.82039V9.52709H53.9856C54.6995 9.52709 54.9534 9.41232 55.2986 8.92799L57.3037 5.83941C57.6263 5.35595 57.8341 5.26378 58.4559 5.26378H59.7236C60.4149 5.26378 60.5532 5.8168 60.1619 6.3933L57.9263 9.781C57.6959 10.1036 57.4194 10.4497 57.1429 10.7262C57.4194 10.9566 57.8115 11.3488 57.9724 11.5792L60.7836 15.6816C61.1766 16.2338 61.0384 16.7868 60.3471 16.7868Z" fill="black"/>
<path d="M64.7026 18.9067V18.1459C64.7026 17.5007 64.933 17.2703 65.5782 17.2703H66.6842C67.3529 17.2703 67.6755 17.132 67.9285 16.6016L68.0668 16.3016L62.7887 6.322C62.4661 5.72289 62.72 5.26204 63.4113 5.26204H64.6095C65.2321 5.26204 65.5086 5.37682 65.7391 5.81506L67.9511 10.3549C68.4581 11.3922 69.0346 12.5905 69.4954 13.6278C69.9563 12.6139 70.4858 11.4618 70.9936 10.4471L73.2527 5.8168C73.4605 5.37855 73.7596 5.26378 74.3822 5.26378H75.5804C76.2717 5.26378 76.5256 5.72463 76.203 6.32374L70.1885 17.732C69.4972 19.0459 68.6902 19.7832 66.8929 19.7832H65.5782C64.933 19.7824 64.7026 19.5519 64.7026 18.9067Z" fill="black"/>
<path d="M78.196 14.2052L78.5421 13.4217C78.7725 12.8913 79.1872 12.7531 79.7177 13.1452C80.7315 13.8826 82.3906 14.4356 84.6036 14.4356C86.4931 14.4356 87.3 13.9513 87.3 13.3756C87.3 12.7305 86.6313 12.5461 85.5253 12.4079L83.0132 12.0853C79.9942 11.6931 78.4725 10.6105 78.4725 8.72017C78.4725 6.69242 80.1316 5.07857 83.981 5.07857C86.1244 5.07857 87.5069 5.40116 88.406 5.74724C89.3964 6.1394 89.5356 6.46199 89.5356 7.26805V8.3054C89.5356 8.95059 89.3051 9.18102 88.6599 9.18102H87.9452C87.3 9.18102 87.0696 8.95059 87.0696 8.3054V7.95933C86.6548 7.82107 85.6175 7.61325 84.3966 7.61325C82.2758 7.61325 81.2393 8.00541 81.2393 8.65061C81.2393 9.13407 81.8619 9.41145 82.9906 9.57231L85.4566 9.89491C88.4756 10.2871 90.066 11.1853 90.066 13.3522C90.066 15.5643 87.9687 16.9703 84.2349 16.9703C81.4924 16.9703 79.2794 16.0947 78.4038 15.2877C78.0812 14.9886 78.0351 14.5973 78.196 14.2052Z" fill="black"/>
<path d="M114.949 10.3801V15.9112C114.949 16.5564 114.718 16.7868 114.073 16.7868H113.151C112.506 16.7868 112.276 16.5564 112.276 15.9112V10.6105C112.276 8.81321 111.4 7.72977 109.602 7.72977C108.15 7.72977 106.998 8.62887 106.145 9.57318V15.9112C106.145 16.5564 105.914 16.7868 105.269 16.7868H104.347C103.702 16.7868 103.472 16.5564 103.472 15.9112V10.6105C103.472 8.81321 102.619 7.72977 100.821 7.72977C99.4152 7.70629 98.1935 8.5593 97.3414 9.48101V15.9112C97.3414 16.5564 97.1109 16.7868 96.4657 16.7868H95.544C94.8988 16.7868 94.6684 16.5564 94.6684 15.9112V7.77586H93.8154C93.1702 7.77586 92.9398 7.54543 92.9398 6.90024V6.1394C92.9398 5.4942 93.1702 5.26378 93.8154 5.26378H96.051C96.6962 5.26378 96.9266 5.4942 96.9266 6.1394V6.76198C97.71 5.95505 98.9778 5.07944 100.891 5.07944C103.011 5.07944 104.393 5.77071 105.224 7.0611C106.238 6.02375 107.62 5.07944 109.649 5.07944C112.92 5.07857 114.949 6.87676 114.949 10.3801Z" fill="black"/>
<path d="M124.859 9.57318H127.578V9.18102C127.578 8.16715 126.357 7.56804 124.421 7.56804C122.67 7.56804 121.264 8.21323 120.434 8.83582C119.904 9.22798 119.489 9.11233 119.259 8.5593L118.913 7.77586C118.752 7.3837 118.797 6.99241 119.121 6.69242C119.789 6.06983 121.747 5.07944 124.559 5.07944C127.74 5.07944 130.159 6.41591 130.159 8.81321V15.9112C130.159 16.5564 129.929 16.7868 129.284 16.7868H128.546C127.901 16.7868 127.671 16.5564 127.671 15.9112V15.266C126.91 16.1651 125.343 16.9712 123.153 16.9712C120.595 16.9712 118.383 15.7729 118.383 13.4217C118.382 10.887 120.71 9.57318 124.859 9.57318ZM123.43 14.5513C124.882 14.5513 127.671 13.7678 127.671 11.6931H125.159C122.3 11.6931 121.126 12.2922 121.126 13.2835C121.125 14.0904 121.886 14.5513 123.43 14.5513Z" fill="black"/>
<path d="M146.106 10.1262C146.106 10.7714 145.876 11.0018 145.231 11.0018H144.309C143.664 11.0018 143.434 10.8175 143.434 10.1262C143.434 8.42105 142.788 7.66021 141.221 7.66021C139.747 7.66021 138.525 8.58191 137.834 9.68883V15.9112C137.834 16.5564 137.603 16.7868 136.958 16.7868H136.036C135.391 16.7868 135.161 16.5564 135.161 15.9112V7.77586H134.308C133.663 7.77586 133.432 7.54543 133.432 6.90024V6.1394C133.432 5.4942 133.663 5.26378 134.308 5.26378H136.543C137.189 5.26378 137.419 5.4942 137.419 6.1394V6.87676C138.249 5.95506 139.494 5.07944 141.637 5.07944C144.815 5.07857 146.106 6.94545 146.106 10.1262Z" fill="black"/>
<path d="M148.73 5.26378H150.274V2.24476C150.274 1.59957 150.505 1.36914 151.15 1.36914H152.071C152.717 1.36914 152.947 1.59957 152.947 2.24476V5.26378H158.686C159.331 5.26378 159.562 5.4942 159.562 6.1394V6.90024C159.562 7.54543 159.331 7.77586 158.686 7.77586H152.947V12.8461C152.947 13.8374 153.616 14.3669 155.205 14.3669C156.497 14.3669 157.28 13.9287 157.741 13.5835C158.271 13.1913 158.64 13.3296 158.916 13.86L159.355 14.7356C159.539 15.1278 159.447 15.4269 159.101 15.7269C158.686 16.0955 157.35 16.9712 154.906 16.9712C152.256 16.9712 150.273 15.8416 150.273 13.1913V7.77499H148.729C148.084 7.77499 147.853 7.54456 147.853 6.89937V6.13853C147.854 5.49333 148.085 5.26378 148.73 5.26378Z" fill="black"/>
</g>
<defs>
<filter id="filter0_f" x="-1.39146" y="0.550434" width="19.2008" height="20.9636" filterUnits="userSpaceOnUse" color-interpolation-filters="sRGB">
<feFlood flood-opacity="0" result="BackgroundImageFix"/>
<feBlend mode="normal" in="SourceGraphic" in2="BackgroundImageFix" result="shape"/>
<feGaussianBlur stdDeviation="0.695731" result="effect1_foregroundBlur"/>
</filter>
<clipPath id="clip0">
<rect width="160" height="20" fill="white" transform="translate(0 0.5)"/>
</clipPath>
</defs>
</svg>
